<?xml version="1.0" encoding="utf-8"?>
<!-- Generator: Adobe Illustrator 21.1.0, SVG Export Plug-In . SVG Version: 6.00 Build 0)  -->
<svg version="1.1" id="Laag_1" xmlns="http://www.w3.org/2000/svg" xmlns:xlink="http://www.w3.org/1999/xlink" x="0px" y="0px"
	 viewBox="0 0 257.8 263.8" style="enable-background:new 0 0 257.8 263.8;" xml:space="preserve">
<style type="text/css">
	.st0{fill:#F4F4F4;}
	.st1{fill:#FFFFFF;}
	.st2{fill:#666857;}
	.st3{fill:#2279BE;stroke:#000000;stroke-width:2;stroke-miterlimit:10;}
	.st4{fill:none;}
	.st5{fill:#FFD530;}
	.st6{fill:#FFE02F;}
	.st7{fill:#B2B2B2;}
	.st8{stroke:#000000;stroke-width:2;stroke-miterlimit:10;}
</style>
<path class="st0" d="M218,99.1l-0.1-0.3c-1.8-24.6-11.9-47.5-28.4-64.4C173,17.6,151.5,8.3,128.9,8.3C83.2,8.3,45,46,40,96.1l0,0.2
	c-2.8,9.7-9.6,30.5-20,39.6c5.6-1,13.2-3.1,18.3-6.9c0.4-0.2,0.8-0.5,1.4-0.6c1.1-0.3,2-0.3,2.6-0.2c-0.2,0.6-0.6,1.5-1.4,2.5
	c-0.4,0.5-1.2,1.5-1.8,1.7c-3.7,4.1-16.2,20.8-21.2,64.3c5.8-10.1,17.6-29.7,26.3-38.5l3.9-4l-1.4,5.4c-0.1,0.3-7.6,30.2,6.5,67.9
	c1.6-11.1,5.7-35.2,12.9-47.5l1-1.7c0,0,2-2.8,2.9-3.3c0,0-0.7,4-0.6,5.6l0,0.6c0.2,6.3,1.4,36.9,10,53.6c1.8-8,6.2-27,9.7-37.5
	l0.5-1.7l0.1,0l4.6-5.6l-0.1,7.9l0.1,0.8c0.8,9.9,3.8,28.5,15.5,47.2c-0.5-8.4-0.7-23.9,3.2-32.3l1.8-3.9l1.1,4.1
	c0.1,0.3,6.8,26,13.4,39.6c6.3-13.9,12.5-37.4,12.5-37.6l1.1-4.1l1.8,3.9c3.8,8.4,3.6,23.9,3.2,32.3c12.8-20.4,15.2-40.9,15.6-49.2
	l0-0.9l0,0l0.7-6.6l3.1,4.7l0.1,0l0.6,1.6c3.6,10.2,8.4,30.7,10.3,39.2c9.5-18.6,10-54.5,10-54.9l0.1-5.1l2.7,4.3
	c7.5,11.9,11.8,36.9,13.4,48.3c14.2-37.7,6.6-67.6,6.5-67.9l-1.4-5.4l3.9,4c8.7,8.8,20.5,28.4,26.3,38.5
	c-5.8-51.1-22.1-65.2-22.2-65.4l-2.5-3.7l4.4,1.4c5,3.9,12.7,5.9,18.3,6.9C227.6,129,220.8,108.6,218,99.1z"/>
<path class="st1" d="M40,96.6l0,0.2c-2.8,9.7-9.6,30.5-20,39.6c5.6-1,13.2-3.1,18.3-6.9c0.4-0.2,0.8-0.5,1.4-0.6
	c1.1-0.3,2-0.3,2.6-0.2c-0.2,0.6-0.6,1.5-1.4,2.5c-0.4,0.5-1.2,1.5-1.8,1.7c-3.7,4.1-16.2,20.8-21.2,64.3
	c5.8-10.1,17.6-29.7,26.3-38.5l3.9-4l-1.4,5.4c-0.1,0.3-7.6,30.2,6.5,67.9c1.6-11.1,5.7-35.2,12.9-47.5l1-1.7c0,0,2-2.8,2.9-3.3
	c0,0-0.7,4-0.6,5.6l0,0.6c0.2,6.3,1.4,36.9,10,53.6c1.8-8,6.2-27,9.7-37.5l0.5-1.7l0.1,0l4.6-5.6l-0.1,7.9l0.1,0.8
	c0.8,9.9,3.8,28.5,15.5,47.2c-0.5-8.4-0.7-23.9,3.2-32.3l1.8-3.9l1.1,4.1c0.1,0.3,6.5,24.8,13,38.6V8.7C83.2,8.7,45,46.5,40,96.6z"
	/>
<path class="st2" d="M68.4,116.8c0,0,25.6-11.7,29.7-19c0,0-18,10.9-30.4,0c0,0,19.4,3,27.1-8.2s3.4-27.9,3.4-27.9
	s5.7,13.1,13.8,12.8s9.5-9.1,16-9.1v58L68.4,116.8z"/>
<path class="st2" d="M187.1,116.8c0,0-25.6-11.7-29.7-19c0,0,18,10.9,30.4,0c0,0-19.4,3-27.1-8.2s-3.4-27.9-3.4-27.9
	s-5.7,13.1-13.8,12.8c-8.1-0.3-9.5-9.1-16-9.1v58L187.1,116.8z"/>
<circle class="st3" cx="84.3" cy="80.9" r="13.8"/>
<circle cx="84.5" cy="80.6" r="5.2"/>
<g>
	<path d="M111.9,80.1c-0.3,1.2-0.8,2.3-1.5,3.3c-0.7,1-1.6,1.9-2.8,2.5l-0.4,0.2l-0.5,0.2c-0.3,0.1-0.6,0.2-0.9,0.3
		c-0.6,0.1-1.3,0.3-1.9,0.3l-1,0c-0.3,0-0.6-0.1-1-0.1c-0.3-0.1-0.6-0.1-1-0.2l-0.9-0.3c-2.4-0.7-4.6-2-6.6-3.5
		c-2-1.5-3.7-3.1-5.5-4.7c-1.7-1.7-3.3-3.4-4.9-5.2l-4.7-5.2c-1.6-1.7-3.2-3.4-4.9-4.9c-1.7-1.5-3.6-2.8-5.9-3.5
		c2.4,0,4.7,1.1,6.8,2.3c2.1,1.3,3.9,2.8,5.7,4.4c1.8,1.6,3.4,3.3,5.1,5c1.6,1.7,3.2,3.4,4.9,5c1.6,1.7,3.3,3.2,5.1,4.6
		c0.9,0.7,1.8,1.4,2.7,2c0.5,0.3,1,0.5,1.4,0.8c0.2,0.1,0.5,0.3,0.7,0.4l0.7,0.3l0.8,0.3c0.3,0.1,0.5,0.1,0.8,0.2l0.8,0.2l0.8,0.1
		c0.5,0.1,1,0,1.6,0c0.3,0,0.5-0.1,0.8-0.1l0.4-0.1l0.4-0.1c1-0.3,2-0.9,2.8-1.7C110.6,82.1,111.3,81.1,111.9,80.1z"/>
</g>
<g>
	<path d="M83.1,70.8l-4.3-1.1c-1.4-0.3-2.7-0.6-4.1-0.8c-1.3-0.2-2.7-0.3-4.1-0.3c-1.4-0.1-2.8,0.1-4.4,0.1c1.1-1.1,2.5-2,4.1-2.4
		c1.6-0.5,3.2-0.6,4.8-0.3c1.6,0.2,3.1,0.8,4.5,1.6C81,68.4,82.3,69.4,83.1,70.8z"/>
</g>
<g>
	<path d="M98.1,80.1c0.2,1.7,0,3.4-0.4,5.1c-0.4,1.7-1,3.4-2,4.9c-1,1.5-2.3,2.9-3.9,3.9c-1.6,1-3.4,1.6-5.2,1.9
		c-3.7,0.5-7.3-0.3-10.5-1.6c-3.2-1.3-6.2-3.1-8.8-5.2c3.2,1.1,6.4,2.2,9.5,3c3.1,0.8,6.3,1.2,9.3,0.8c3-0.4,5.7-1.8,7.7-4.2
		C95.8,86.4,97.1,83.4,98.1,80.1z"/>
</g>
<circle class="st3" cx="171.5" cy="81.5" r="13.8"/>
<circle cx="171.3" cy="81.2" r="5.2"/>
<g>
	<path d="M143.9,80.7c0.6,1,1.3,2,2.1,2.7c0.8,0.8,1.8,1.4,2.8,1.7l0.4,0.1l0.4,0.1c0.3,0,0.5,0.1,0.8,0.1c0.5,0,1,0.1,1.6,0
		l0.8-0.1l0.8-0.2c0.3-0.1,0.5-0.1,0.8-0.2l0.8-0.3l0.7-0.3c0.2-0.1,0.5-0.3,0.7-0.4c0.5-0.3,1-0.5,1.4-0.8c0.9-0.6,1.8-1.3,2.7-2
		c1.8-1.4,3.5-3,5.1-4.6c1.7-1.6,3.3-3.3,4.9-5c1.7-1.7,3.3-3.4,5.1-5c1.8-1.6,3.6-3.1,5.7-4.4c2.1-1.2,4.4-2.3,6.8-2.3
		c-2.3,0.6-4.2,2-5.9,3.5c-1.7,1.5-3.3,3.2-4.9,4.9l-4.7,5.2c-1.6,1.7-3.2,3.5-4.9,5.2c-1.7,1.7-3.5,3.3-5.5,4.7
		c-2,1.4-4.1,2.7-6.6,3.5l-0.9,0.3c-0.3,0.1-0.6,0.1-1,0.2c-0.3,0-0.6,0.1-1,0.1l-1,0c-0.6,0-1.3-0.1-1.9-0.3
		c-0.3-0.1-0.6-0.2-0.9-0.3l-0.5-0.2l-0.4-0.2c-1.1-0.6-2.1-1.5-2.8-2.5C144.7,83,144.2,81.9,143.9,80.7z"/>
</g>
<g>
	<path d="M172.6,71.4c0.8-1.4,2.1-2.4,3.5-3.2c1.4-0.8,2.9-1.3,4.5-1.6c1.6-0.3,3.3-0.1,4.8,0.3c1.6,0.4,3,1.3,4.1,2.4
		c-1.6,0-3-0.2-4.4-0.1c-1.4,0-2.7,0.1-4.1,0.3c-1.3,0.2-2.7,0.5-4.1,0.8L172.6,71.4z"/>
</g>
<g>
	<path d="M157.7,80.8c1,3.2,2.3,6.3,4.3,8.7c2,2.4,4.7,3.9,7.7,4.2c3,0.4,6.2,0,9.3-0.8c3.2-0.8,6.3-1.9,9.5-3
		c-2.6,2.2-5.6,3.9-8.8,5.2c-3.2,1.3-6.8,2.1-10.5,1.6c-1.8-0.2-3.7-0.9-5.2-1.9c-1.6-1-2.9-2.4-3.9-3.9c-1-1.5-1.6-3.2-2-4.9
		C157.7,84.2,157.5,82.5,157.7,80.8z"/>
</g>
<path class="st0" d="M174.8,67.3c0,0-14.1,15.8-18.5,16.5s4.4-26.4,4.4-26.4L174.8,67.3z"/>
<path class="st1" d="M78.6,64.2c0,0,15.9,17.8,20.9,18.6c5,0.8-4.9-29.7-4.9-29.7L78.6,64.2z"/>
<path d="M256.8,142.9l-11.7-3.7c-12.6-4-21.6-31.8-24.1-40.4c-1.9-25.3-12.3-48.7-29.2-66c-17.1-17.5-39.4-27.1-62.8-27.1
	c-47.2,0-86.7,38.8-91.8,90.3c-7.7,27.2-17.7,39.2-24.4,41.3L1,140.9l12.3-0.8c0.6,0,10.9-0.8,19.8-4.5
	c-5.9,8.9-15.3,28.7-18.8,68.2l-0.6,7.1l3.5-6.3c0.2-0.3,14.6-26.5,25.8-40.2c-1.7,11.1-3.6,38.2,9.8,69.7l2.2,5.3l0.6-5.7
	c0-0.3,3.6-31,11.1-47.8c0.6,11.9,3,40,12.2,54l2,3l0.8-3.5c0.1-0.3,5.6-25.5,9.9-39.3c1,11.2,4.7,32.3,19.1,52.5l3.3,4.6l-0.6-5.6
	c0-0.2-1.9-19.8,1-32c2.5,9,8.2,28.2,13.8,38.1l1.4,2.5l1.3-2.5c5.2-10.3,10.4-27.6,12.7-36.1c2.9,12.2,1,31.7,1,32l-0.6,5.6
	l3.3-4.6c14.5-20.5,18.2-41.9,19.1-52.5c4.3,13.8,9.9,39,9.9,39.3l0.8,3.5l2-3c9.3-14.1,11.6-41.9,12.2-54
	c7.5,16.9,11.1,47.5,11.1,47.8l0.6,5.7l2.2-5.3c13.3-31.5,11.4-58.6,9.8-69.7c11.2,13.6,25.6,39.9,25.8,40.2l3.5,6.3l-0.6-7.1
	c-3.5-39.5-12.9-59.3-18.8-68.2c9,3.8,19.3,4.5,19.8,4.6L256.8,142.9z M219.5,131.2l-4.4-1.4l2.5,3.7c0.2,0.1,16.4,14.2,22.2,65.4
	c-5.8-10.1-17.6-29.7-26.3-38.5l-3.9-4l1.4,5.4c0.1,0.3,7.7,30.2-6.5,67.9c-1.6-11.3-5.9-36.3-13.4-48.3l-2.7-4.3l-0.1,5.1
	c0,0.4-0.5,36.3-10,54.9c-1.9-8.5-6.7-29-10.3-39.2l-0.6-1.6l-0.1,0l-3.1-4.7l-0.7,6.6l0,0l0,0.9c-0.4,8.3-2.9,28.7-15.6,49.2
	c0.5-8.4,0.7-23.9-3.2-32.3l-1.8-3.9l-1.1,4.1c-0.1,0.3-6.2,23.7-12.5,37.6c-6.7-13.6-13.4-39.3-13.4-39.6l-1.1-4.1l-1.8,3.9
	c-3.8,8.4-3.6,23.9-3.2,32.3c-11.7-18.7-14.8-37.3-15.5-47.2l-0.1-0.8l0.1-7.9l-4.6,5.6l-0.1,0l-0.5,1.7
	c-3.5,10.5-7.9,29.5-9.7,37.5c-8.6-16.7-9.8-47.3-10-53.6l0-0.6c0-1.6,0.6-5.6,0.6-5.6c-0.9,0.5-2.9,3.3-2.9,3.3l-1,1.7
	c-7.2,12.2-11.3,36.4-12.9,47.5c-14.1-37.7-6.6-67.6-6.5-67.9l1.4-5.4l-3.9,4c-8.7,8.8-20.5,28.4-26.3,38.5
	c5-43.5,17.4-60.2,21.2-64.3c0.6-0.2,1.4-1.2,1.8-1.7c0.8-1,1.2-1.9,1.4-2.5c-0.6-0.1-1.5-0.1-2.6,0.2c-0.6,0.2-1.1,0.4-1.4,0.6
	c-5,3.9-12.7,5.9-18.3,6.9c10.3-9.1,17.2-29.9,20-39.6l0-0.2C45,46.2,83.2,8.5,128.9,8.5c22.6,0,44.1,9.3,60.7,26.2
	c16.5,16.9,26.6,39.7,28.4,64.4l0.1,0.3c2.8,9.5,9.6,29.8,19.8,38.8C232.2,137.1,224.5,135.1,219.5,131.2z"/>
<g>
	<polygon class="st4" points="127.9,201 127.9,201 127.9,201 	"/>
	<path class="st5" d="M139.9,166.5c0-0.1,0.3-0.9,0.8-2c6.5-16,11.4-24.9,14.4-26.4c8.1-4,23.1-8.9,23.2-9l0.2,0.6
		c-0.2,0-15.1,4.9-23.2,8.9c-1.9,0.9-5.5,5.7-12.5,22.2c3.8-5.3,12-13.1,29.3-18.4c15.6-4.8,20.3-12.8,19.5-18.6
		c-0.8-6.1-7.2-10.4-16-10.6c-19.6-0.5-23.9-4.9-32.2-21.9c-0.1-0.2-6-16.5-15.6-16.8v124.5C129.6,194,134.5,179.8,139.9,166.5z"/>
	<path class="st6" d="M112.3,91.2c-8.4,17.1-12.7,21.4-32.3,22c-8.7,0.2-15.1,4.5-16,10.6c-0.8,5.9,3.9,13.9,19.5,18.6
		c14.7,4.5,22.7,10.8,26.8,15.3c1,1,1.7,2,2.4,2.9c-6.9-16.4-10.6-21.1-12.4-22c-8-4-23-8.9-23.2-8.9l0.2-0.6c0.2,0,15.2,4.9,23.2,9
		c3,1.5,7.8,10.3,14.3,26.1c0.7,1.3,0.9,2.2,0.9,2.3c5.4,13.4,10.3,27.6,12,32.5c0,0,0,0,0-0.1V74.4c0,0,0,0,0,0
		C118.4,74.7,112.4,91,112.3,91.2z"/>
	<polygon class="st7" points="127.9,201 127.9,201 127.9,201 127.9,201 127.9,201 	"/>
	<path class="st8" d="M127.9,199c-1.7-4.9-6.6-19.2-12-32.5c0-0.1-0.3-1-0.9-2.3c-6.5-15.8-11.3-24.6-14.3-26.1
		c-8.1-4-23.1-8.9-23.2-9l-0.2,0.6c0.2,0,15.1,4.9,23.2,8.9c1.9,0.9,5.5,5.6,12.4,22c-0.7-0.9-1.5-1.9-2.4-2.9
		c-4.1-4.5-12.1-10.8-26.8-15.3c-15.6-4.8-20.3-12.8-19.5-18.6c0.8-6.1,7.2-10.4,16-10.6c19.6-0.5,23.9-4.9,32.3-22
		c0.1-0.2,6-16.5,15.6-16.8c0,0,0,0,0,0v-0.7c0,0,0,0,0,0c-0.1,0-0.2,0-0.3,0v0c-4,0.3-8,3.2-11.5,8.6c-2.8,4.2-4.3,8.5-4.3,8.5
		c-8.4,17-12.3,21.1-31.7,21.6c-9.1,0.2-15.7,4.7-16.6,11.1c-0.8,6.2,4,14.5,19.9,19.3c21.7,6.6,28.9,17.2,31.1,21.6
		c0.3,0.7,0.5,1.4,0.8,2.1c5.7,14.2,10.9,29.4,12.2,33.3c0,0,0,0,0,0l0.4,1l0,0L127.9,199C127.9,199,127.9,199,127.9,199z"/>
	<path class="st8" d="M192.3,123.6c-0.9-6.4-7.5-10.9-16.6-11.1C156.3,112,152.4,108,144,91c0,0-1.6-4.3-4.4-8.6
		c-3.5-5.4-7.5-8.4-11.5-8.6v0c-0.1,0-0.2,0-0.3,0v0.7c9.5,0.4,15.5,16.6,15.6,16.8c8.4,17,12.6,21.4,32.2,21.9
		c8.7,0.2,15.1,4.5,16,10.6c0.8,5.9-3.9,13.9-19.5,18.6c-17.3,5.3-25.5,13.1-29.3,18.4c7-16.5,10.6-21.3,12.5-22.2
		c8-4,23-8.9,23.2-8.9l-0.2-0.6c-0.2,0-15.2,4.9-23.2,9c-3,1.5-7.9,10.4-14.4,26.4c-0.6,1.2-0.8,1.9-0.8,2
		c-5.4,13.3-10.3,27.5-12,32.5v2l0.3-1c0,0,0,0,0,0c1.3-4,6.5-19.1,12.2-33.3c0.3-0.7,0.6-1.4,0.8-2.1c2.2-4.4,9.4-15,31.1-21.6
		C188.4,138.1,193.1,129.8,192.3,123.6z"/>
</g>
<path class="st8" d="M126.7,197.9"/>
<polygon class="st1" points="126.2,199.3 128.4,205.3 127,207.5 124.8,205.2 "/>
</svg>
