<?xml version="1.0" encoding="utf-8"?>
<!-- Generator: Adobe Illustrator 21.1.0, SVG Export Plug-In . SVG Version: 6.00 Build 0)  -->
<svg version="1.1" id="Laag_1" xmlns="http://www.w3.org/2000/svg" xmlns:xlink="http://www.w3.org/1999/xlink" x="0px" y="0px"
	 viewBox="0 0 178.9 241.5" style="enable-background:new 0 0 178.9 241.5;" xml:space="preserve">
<style type="text/css">
	.st0{fill:#FAB416;}
	.st1{fill:#FFF3DE;}
	.st2{fill:#353535;}
	.st3{fill:#3F3F3F;}
	.st4{fill:#1F1A17;}
	.st5{fill:#FFFFFF;}
	.st6{fill:#556DAB;}
	.st7{fill:#211C18;}
</style>
<path class="st0" d="M160.5,86.1c0,0,11.5-0.1,11,3.6c0,0.4-0.2,1.4-0.8,2.3c-0.4,0.6-1,1-1.3,1.2c-0.1-0.3-0.3-0.8-0.7-1
	c0,0-0.1-0.1-0.2-0.1c-0.7-0.2-8.9,4.8-11.3,6.3"/>
<g>
	<polygon class="st1" points="72.3,105.3 88,123.1 105.6,125.7 105,105.9 	"/>
	<path class="st2" d="M13.1,112.2l78-4.2v-9.2L2.9,103l0,0C3.2,108.3,7.8,112.4,13.1,112.2z"/>
	<path class="st3" d="M128.5,89.2l-5.1,2.9c-6.9,4-14.7,6.1-22.7,6.1l-0.1,0c-16.6,0-20.3,6.8-20.3,6.8l-24.4-1.6
		c0.6,4.1,2,9.7,5.9,14.8c15,19.8,49.8,11,53.3,10.1c7.2-1.9,28-7.4,28.7-19.6C144.4,98.3,129.9,90,128.5,89.2z"/>
	<path class="st4" d="M22.5,111.6l78-4.2l0.3-9.2l-88.5,4.2l0,0C12.5,107.8,17.1,111.9,22.5,111.6z"/>
	<path class="st2" d="M30.5,111.2l78-4.2v-9.4L20.2,102l0,0C20.5,107.4,25.1,111.5,30.5,111.2z"/>
	<path class="st2" d="M21.4,119.6l78-4.2l-0.5-9.7l-87.7,4.7l0,0C11.5,115.7,16.1,119.8,21.4,119.6z"/>
	<path class="st4" d="M30.8,119l78-4.2l-0.5-9.7l-87.7,4.7l0,0C20.8,115.2,25.4,119.3,30.8,119z"/>
	<path class="st2" d="M38.8,118.6l78-4.2l-0.5-9.7l-87.7,4.7l0,0C28.8,114.8,33.4,118.9,38.8,118.6z"/>
	<path class="st5" d="M128.5,89.2l-6.8,2.3l1.7,0.7l-4.3,4.5l6-1.1l-4.7,5.2l4.7-1.3L123,104l4.4-1.5l-1,5l5.6-1.5l1.3,10.3l1.9-5.9
		l2.2,7.9l6.3-9.6l12.6-9.6c2-1.6,3.3-3.9,3.5-6.4l0,0c0.3-3.6,5.2-0.8,3.1-3.8l-5-5.4c-0.6-0.6-1.3-1.1-2.1-1.3l0,0
		c-2.7-0.8-5.6-0.7-8.3,0.3L128.5,89.2z"/>
	<circle class="st6" cx="153.8" cy="88.9" r="1.4"/>
	<g>
		<path class="st7" d="M150.7,87.4c0.3-0.5,0.7-0.9,1.3-1.1c0.3-0.1,0.6-0.2,0.9-0.2c0.3,0,0.7,0.2,1,0.3c0.5,0.4,0.8,0.8,1.2,1.2
			c0.3,0.4,0.6,0.7,1.1,1c-0.6,0.2-1.2-0.1-1.7-0.4c-0.5-0.3-0.8-0.7-1.2-0.9c-0.2-0.1-0.3-0.2-0.5-0.2c-0.2,0-0.4,0-0.6,0
			C151.8,87.1,151.3,87.3,150.7,87.4z"/>
	</g>
</g>
<g>
	<path class="st2" d="M112.1,118.7l-62.3,15.5l0,0c-1.2-11.5,6.9-22,18.3-23.7l41.7-11.4L112.1,118.7z"/>
	<path class="st4" d="M110.7,123.4l-57.9,26.7v0c-2.9-8.4,1.4-17.6,9.7-20.8l48.9-23.4L110.7,123.4z"/>
	<path class="st2" d="M110.6,129.1l-52.5,36.1l0,0c-4.3-7.8-1.6-17.6,6.1-22.1l44.2-31.3L110.6,129.1z"/>
	<path class="st4" d="M127.1,125.6l-60.8,55.7h0c-5.1-7.1-3.7-17,3.3-22.4l54.2-50.2L127.1,125.6z"/>
	<path class="st2" d="M126.9,125L80,196.4l0,0c-6.4-4.9-7.8-13.9-3.1-20.4l42.4-64.8L126.9,125z"/>
	<path class="st4" d="M125.3,133.5l-31.8,79.3l0,0c-7.2-3.5-10.4-12.1-7.1-19.4l28.7-71.9L125.3,133.5z"/>
	<path class="st2" d="M116.7,141.7l-3,85.4l0,0c-8-0.9-13.8-7.9-13.3-15.9l2.7-77.4L116.7,141.7z"/>
	<path class="st4" d="M119,150l17.9,83.5h0c-7.9,1.1-15.3-4.2-16.8-12.1l-16.3-75.7L119,150z"/>
	<path class="st2" d="M116.8,150.1l50.4,69h0c-6.8,4.3-15.7,2.4-20.2-4.3l-39.9-59.7L116.8,150.1z"/>
	<path class="st4" d="M83.3,98.7l19-2.1c13.2-1.2,24.6,9.1,24.7,22.4l0.1,5.3c0.2,15.9,3.3,31.5,9.4,46.2l6.3,15.2l-13.9-8.6
		c-11.9-7.3-21.1-18.2-26.3-31.1L83.3,98.7z"/>
</g>
</svg>
