<?xml version="1.0" encoding="utf-8"?>
<!-- Generator: Adobe Illustrator 21.1.0, SVG Export Plug-In . SVG Version: 6.00 Build 0)  -->
<svg version="1.1" id="Laag_1" xmlns="http://www.w3.org/2000/svg" xmlns:xlink="http://www.w3.org/1999/xlink" x="0px" y="0px"
	 viewBox="0 0 178.9 241.5" style="enable-background:new 0 0 178.9 241.5;" xml:space="preserve">
<style type="text/css">
	.st0{fill:#FAB416;}
	.st1{fill:#1F1A17;}
	.st2{fill:#FFF3DE;}
	.st3{fill:#353535;}
	.st4{fill:#3F3F3F;}
	.st5{fill:#FFFFFF;}
	.st6{fill:#556DAB;}
	.st7{fill:#211C18;}
</style>
<path class="st0" d="M160.5,86.1c0,0,11.5-0.1,11,3.6c0,0.4-0.2,1.4-0.8,2.3c-0.4,0.6-1,1-1.3,1.2c-0.1-0.3-0.3-0.8-0.7-1
	c0,0-0.1-0.1-0.2-0.1c-0.7-0.2-8.9,4.8-11.3,6.3"/>
<g>
	<path class="st1" d="M127.8,96.5l-2-3.7c-1.1-2-2.2-4.2-3.4-6.7c-9-18.8-11.6-40.1-7.7-60.6l2.6-14l0,0
		c-6.4-0.4-11.1,4.1-13.5,18.7c-2.4,14.6-1.4,21.4-1.4,21.4L90.7,13v0c-5.9,2.3-9,8.8-7,14.9l5.9,19.6L77,26.5
		c-5.2,3.6-6.6,10.8-3.2,16.1l6.9,11.5l-12.2-10c-3.7,5.2-2.6,12.4,2.5,16.2l11.4,9.3l-17-9c-2.6,5.8-0.1,12.6,5.7,15.4l9.1,4.8
		l-18.5-4.5h0c-0.8,6.9,4,13.2,10.9,14.3l6.8,1.7L62,90.8c0,5.5,3.5,10.2,8.3,12.1l-6.2,0.4l0,0c1,5.4,5.1,9.5,10.2,10.6l-6.1,1.6
		c3.6,8.5,13.2,12.7,21.8,9.4l18.4-4.4c3,2,7,2.5,10.7,1C128.8,117.3,132.7,105.7,127.8,96.5z"/>
	<polygon class="st2" points="72.3,105.3 88,123.1 105.6,125.7 105,105.9 	"/>
	<path class="st3" d="M13.1,112.2l78-4.2v-9.2L2.9,103l0,0C3.2,108.3,7.8,112.4,13.1,112.2z"/>
	<path class="st4" d="M128.5,89.2l-5.1,2.9c-6.9,4-14.7,6.1-22.7,6.1l-0.1,0c-16.6,0-20.3,6.8-20.3,6.8l-24.4-1.6
		c0.6,4.1,2,9.7,5.9,14.8c15,19.8,49.8,11,53.3,10.1c7.2-1.9,28-7.4,28.7-19.6C144.4,98.3,129.9,90,128.5,89.2z"/>
	<path class="st1" d="M22.5,111.6l78-4.2l0.3-9.2l-88.5,4.2l0,0C12.5,107.8,17.1,111.9,22.5,111.6z"/>
	<path class="st3" d="M30.5,111.2l78-4.2v-9.4L20.2,102l0,0C20.5,107.4,25.1,111.5,30.5,111.2z"/>
	<path class="st3" d="M21.4,119.6l78-4.2l-0.5-9.7l-87.7,4.7l0,0C11.5,115.7,16.1,119.8,21.4,119.6z"/>
	<path class="st1" d="M30.8,119l78-4.2l-0.5-9.7l-87.7,4.7l0,0C20.8,115.2,25.4,119.3,30.8,119z"/>
	<path class="st3" d="M38.8,118.6l78-4.2l-0.5-9.7l-87.7,4.7l0,0C28.8,114.8,33.4,118.9,38.8,118.6z"/>
	<path class="st5" d="M128.5,89.2l-6.8,2.3l1.7,0.7l-4.3,4.5l6-1.1l-4.7,5.2l4.7-1.3L123,104l4.4-1.5l-1,5l5.6-1.5l1.3,10.3l1.9-5.9
		l2.2,7.9l6.3-9.6l12.6-9.6c2-1.6,3.3-3.9,3.5-6.4l0,0c0.3-3.6,5.2-0.8,3.1-3.8l-5-5.4c-0.6-0.6-1.3-1.1-2.1-1.3l0,0
		c-2.7-0.8-5.6-0.7-8.3,0.3L128.5,89.2z"/>
	<circle class="st6" cx="153.8" cy="88.9" r="1.4"/>
	<g>
		<path class="st3" d="M107.1,102.3l-55.9,18.8v0c3.4,7.5,12.1,10.9,19.7,7.8l47.7-15.3L107.1,102.3z"/>
		<path class="st4" d="M103.4,98.4l-58.3,9.1l0,0c2.1,8,10.1,12.8,18.1,11l49.6-7.1L103.4,98.4z"/>
		<path class="st3" d="M116.7,90.4l-76.3,1.2v0c1.1,8,8.4,13.8,16.4,13l68.3-0.7L116.7,90.4z"/>
		<path class="st4" d="M116.9,90.9L40,72.7l0,0C38.8,80,43.6,87,50.9,88.4l69.7,16.6L116.9,90.9z"/>
		<path class="st3" d="M110.5,86.2L38.7,53.1l0,0c-2.6,6.9,0.7,14.7,7.5,17.6l65,30.1L110.5,86.2z"/>
		<path class="st4" d="M99.5,86.2L43.2,30.7l0,0c-4.8,5.6-4.3,14.1,1.2,19.1l51,50.3L99.5,86.2z"/>
		<path class="st3" d="M95.7,79l-41-67.6l0,0c-6,4.3-7.6,12.6-3.6,18.8l37.1,61.2L95.7,79z"/>
		<path class="st4" d="M94.2,80.4L84.2,2l0,0c-7.3,1.5-12.1,8.4-10.9,15.7l11.2,65.5L94.2,80.4z"/>
		<path class="st3" d="M97.9,119.7c3.2,8.3,13.5,11.2,20.6,5.8l0,0c9.6-7.6,10.7-21.8,2.4-30.8l-3.3-3.6c-10-10.8-17.8-23.3-23-37
			l-5.5-14.2l-3.9,14.6c-3.3,12.4-2.6,25.6,2.1,37.6L97.9,119.7z"/>
	</g>
	<g>
		<path class="st7" d="M150.7,87.4c0.3-0.5,0.7-0.9,1.3-1.1c0.3-0.1,0.6-0.2,0.9-0.2c0.3,0,0.7,0.2,1,0.3c0.5,0.4,0.8,0.8,1.2,1.2
			c0.3,0.4,0.6,0.7,1.1,1c-0.6,0.2-1.2-0.1-1.7-0.4c-0.5-0.3-0.8-0.7-1.2-0.9c-0.2-0.1-0.3-0.2-0.5-0.2c-0.2,0-0.4,0-0.6,0
			C151.8,87.1,151.3,87.3,150.7,87.4z"/>
	</g>
</g>
</svg>
