<?xml version="1.0" encoding="utf-8"?>
<!-- Generator: Adobe Illustrator 21.1.0, SVG Export Plug-In . SVG Version: 6.00 Build 0)  -->
<svg version="1.1" id="Laag_1" xmlns="http://www.w3.org/2000/svg" xmlns:xlink="http://www.w3.org/1999/xlink" x="0px" y="0px"
	 viewBox="0 0 257.8 263.8" style="enable-background:new 0 0 257.8 263.8;" xml:space="preserve">
<style type="text/css">
	.st0{fill:#E87015;}
</style>
<path class="st0" d="M194.2,87.9c0.2-2.1,0.4-4.2,0.4-6.3c0-29.7-24-53.7-53.7-53.7c-28,0-51,21.5-53.5,48.8
	c-4.5-1.2-9.2-1.9-14-1.9c-29.7,0-53.7,24-53.7,53.7s24,53.7,53.7,53.7c0.4,0,0.7,0,1.1,0c0,0,0,0,0,0c0,29.7,24,53.7,53.7,53.7
	c25.6,0,46.9-17.9,52.4-41.8c3.5,0.7,7.1,1.1,10.8,1.1c29.7,0,53.7-24,53.7-53.7C245.1,112.8,222.5,89.4,194.2,87.9z"/>
</svg>
