<?xml version="1.0" encoding="utf-8"?>
<!-- Generator: Adobe Illustrator 21.1.0, SVG Export Plug-In . SVG Version: 6.00 Build 0)  -->
<svg version="1.1" id="Laag_1" xmlns="http://www.w3.org/2000/svg" xmlns:xlink="http://www.w3.org/1999/xlink" x="0px" y="0px"
	 viewBox="0 0 582.5 29.8" style="enable-background:new 0 0 582.5 29.8;" xml:space="preserve">
<style type="text/css">
	.st0{fill:#96BB8D;}
</style>
<g>
	<path class="st0" d="M582.5-2.1c-0.5,0.6-1,1.2-1.4,1.8H0v13c0.1,0,0.1,0.1,0.1,0.1c2,2.1,4.7,3.4,7.8,3.4c2.5,0,4.9-0.9,6.7-2.4
		c0.9,1,2,1.9,3.2,2.5c2,2.1,4.7,3.4,7.8,3.4c3.6,0,6.8-1.8,8.7-4.5c1-0.1,1.9-0.3,2.8-0.6c1.1,0.4,2.2,0.6,3.4,0.6
		c2.4,0,4.5-0.8,6.3-2.1c1.5,0.8,3.3,1.3,5.1,1.3c3,0,5.7-1.2,7.7-3.2c0.8,0.7,1.7,1.2,2.7,1.6c1,1.8,2.6,3.3,4.5,4.3
		c2,2.1,4.7,3.4,7.8,3.4c3.6,0,6.8-1.8,8.7-4.5c2.9-0.3,5.5-1.7,7.3-3.9c1.8,1.4,4.1,2.3,6.6,2.3c2.1,0,4.1-0.6,5.7-1.7
		c0.4,0.3,0.9,0.6,1.4,0.8c2,2.1,4.7,3.4,7.8,3.4c3.6,0,6.8-1.8,8.7-4.5c0.3,0,0.5-0.1,0.8-0.1c0.3,0.1,0.6,0.3,0.9,0.4
		c1,1.8,2.6,3.3,4.5,4.3c2,2.1,4.7,3.4,7.8,3.4c3.6,0,6.8-1.8,8.7-4.5c3.2-0.3,6-2,7.8-4.5c0.7,0.5,1.4,0.9,2.2,1.3
		c1,1.8,2.6,3.3,4.5,4.3c2,2.1,4.7,3.4,7.8,3.4c3.6,0,6.8-1.8,8.7-4.5c2.2-0.2,4.2-1.1,5.8-2.4c1,1.5,2.4,2.7,4,3.5
		c2,2.1,4.7,3.4,7.8,3.4c3.6,0,6.8-1.8,8.7-4.5c1.4-0.1,2.8-0.5,4-1.1c1.9,1.9,4.6,3.1,7.5,3.1c3.6,0,6.8-1.8,8.7-4.5
		c0.4,0,0.8-0.1,1.2-0.2c0.2,0.1,0.3,0.2,0.5,0.2c1,1.8,2.6,3.3,4.5,4.3c2,2.1,4.7,3.4,7.8,3.4c3.6,0,6.8-1.8,8.7-4.5
		c2.7-0.2,5.1-1.5,6.9-3.3c1.4,0.7,3,1.1,4.6,1.1c3.6,0,6.8-1.8,8.7-4.5c1.2-0.1,2.3-0.4,3.4-0.9c0.7,0.5,1.4,0.9,2.1,1.2
		c1,1.8,2.6,3.3,4.5,4.3c2,2.1,4.7,3.4,7.8,3.4c3.6,0,6.8-1.8,8.7-4.5c3.7-0.3,6.8-2.5,8.5-5.5c0.9,1,1.9,1.8,3.1,2.4
		c2,2.1,4.7,3.4,7.8,3.4c3.2,0,6.1-1.4,8.1-3.7c0.7,0.5,1.5,1,2.3,1.3c1,1.8,2.6,3.3,4.5,4.3c2,2.1,4.7,3.4,7.8,3.4
		c3.6,0,6.8-1.8,8.7-4.5c4.3-0.4,7.9-3.4,9.2-7.4c0.1,0,0.2-0.1,0.2-0.1c0.4,0.3,0.9,0.6,1.4,0.8c2,2.1,4.7,3.4,7.8,3.4
		c3.6,0,6.8-1.8,8.7-4.5c0.5,0,1-0.1,1.5-0.2c1,1.4,2.3,2.6,3.9,3.4c2,2.1,4.7,3.4,7.8,3.4c3.6,0,6.8-1.8,8.7-4.5
		c1.9-0.2,3.7-0.8,5.1-1.9c1.8,1.3,4,2.1,6.3,2.1c3.6,0,6.8-1.8,8.7-4.5c0,0,0.1,0,0.1,0c1.2,1.5,2.7,2.8,4.5,3.5
		c1,1.8,2.6,3.3,4.5,4.3c2,2.1,4.7,3.4,7.8,3.4c3.6,0,6.8-1.8,8.7-4.5c4.3-0.4,7.9-3.4,9.2-7.4c0.6-0.3,1.2-0.7,1.8-1.1
		c1.9,1.7,4.4,2.7,7.1,2.7c1.2,0,2.4-0.2,3.5-0.6c1,1.2,2.2,2.2,3.6,2.9c2,2.1,4.7,3.4,7.8,3.4c3.6,0,6.8-1.8,8.7-4.5
		c1.6-0.1,3.1-0.7,4.5-1.4c0.5,0.4,1.1,0.8,1.7,1.1c2,2.1,4.7,3.4,7.8,3.4c3.6,0,6.8-1.8,8.7-4.5c3.5-0.3,6.5-2.3,8.2-5.1
		c1.1,1.3,2.5,2.4,4.2,3c1,1.8,2.6,3.3,4.5,4.3c2,2.1,4.7,3.4,7.8,3.4c3.2,0,6-1.4,8-3.6c1.8,1.3,4,2.1,6.4,2.1
		c3.6,0,6.8-1.8,8.7-4.5c1.3-0.1,2.5-0.4,3.6-1c0.7,0.5,1.5,0.9,2.3,1.3c1,1.8,2.6,3.3,4.5,4.3c2,2.1,4.7,3.4,7.8,3.4
		c3.6,0,6.8-1.8,8.7-4.5c1.7-0.2,3.3-0.7,4.7-1.6c0.3,2.2,1.3,4.3,2.8,5.9v-13V-2.1z"/>
</g>
</svg>
