<?xml version="1.0" encoding="utf-8"?>
<!-- Generator: Adobe Illustrator 21.1.0, SVG Export Plug-In . SVG Version: 6.00 Build 0)  -->
<svg version="1.1" id="Laag_1" xmlns="http://www.w3.org/2000/svg" xmlns:xlink="http://www.w3.org/1999/xlink" x="0px" y="0px"
	 viewBox="0 0 29 582.5" style="enable-background:new 0 0 29 582.5;" xml:space="preserve">
<style type="text/css">
	.st0{fill:#96BB8D;}
</style>
<g>
	<path class="st0" d="M11.9,161.8c-2.1,2-3.4,4.7-3.4,7.8c0,3.6,1.8,6.8,4.5,8.7c0.1,1.4,0.5,2.8,1.1,4c-1.9,1.9-3.1,4.6-3.1,7.5
		c0,3.6,1.8,6.8,4.5,8.7c0,0.4,0.1,0.8,0.2,1.2c-0.1,0.2-0.2,0.3-0.2,0.5c-1.8,1-3.3,2.6-4.3,4.5c-2.1,2-3.4,4.7-3.4,7.8
		c0,3.6,1.8,6.8,4.5,8.7c0.2,2.7,1.5,5.1,3.3,6.9c-0.7,1.4-1.1,3-1.1,4.6c0,3.6,1.8,6.8,4.5,8.7c0.1,1.2,0.4,2.3,0.9,3.4
		c-0.5,0.7-0.9,1.4-1.2,2.1c-1.8,1-3.3,2.6-4.3,4.5c-2.1,2-3.4,4.7-3.4,7.8c0,3.6,1.8,6.8,4.5,8.7c0.3,3.7,2.5,6.8,5.5,8.5
		c-1,0.9-1.8,1.9-2.4,3.1c-2.1,2-3.4,4.7-3.4,7.8c0,3.2,1.4,6.1,3.7,8.1c-0.5,0.7-1,1.5-1.3,2.3c-1.8,1-3.3,2.6-4.3,4.5
		c-2.1,2-3.4,4.7-3.4,7.8c0,3.6,1.8,6.8,4.5,8.7c0.4,4.3,3.4,7.9,7.4,9.2c0,0.1,0.1,0.2,0.1,0.2c-0.3,0.4-0.6,0.9-0.8,1.4
		c-2.1,2-3.4,4.7-3.4,7.8c0,3.6,1.8,6.8,4.5,8.7c0,0.5,0.1,1,0.2,1.5c-1.4,1-2.6,2.3-3.4,3.9c-2.1,2-3.4,4.7-3.4,7.8
		c0,3.6,1.8,6.8,4.5,8.7c0.2,1.9,0.8,3.7,1.9,5.1c-1.3,1.8-2.1,4-2.1,6.3c0,3.6,1.8,6.8,4.5,8.7v0.1c-1.5,1.2-2.8,2.7-3.5,4.5
		c-1.8,1-3.3,2.6-4.3,4.5c-2.1,2-3.4,4.7-3.4,7.8c0,3.6,1.8,6.8,4.5,8.7c0.4,4.3,3.4,7.9,7.4,9.2c0.3,0.6,0.7,1.2,1.1,1.8
		c-1.7,1.9-2.7,4.4-2.7,7.1c0,1.2,0.2,2.4,0.6,3.5c-1.2,1-2.2,2.2-2.9,3.6c-2.1,2-3.4,4.7-3.4,7.8c0,3.6,1.8,6.8,4.5,8.7
		c0.1,1.6,0.7,3.1,1.4,4.5c-0.4,0.5-0.8,1.1-1.1,1.7c-2.1,2-3.4,4.7-3.4,7.8c0,3.6,1.8,6.8,4.5,8.7c0.3,3.5,2.3,6.5,5.1,8.2
		c-1.3,1.1-2.4,2.5-3,4.2c-1.8,1-3.3,2.6-4.3,4.5c-2.1,2-3.4,4.7-3.4,7.8c0,3.2,1.4,6,3.6,8c-1.3,1.8-2.1,4-2.1,6.4
		c0,3.6,1.8,6.8,4.5,8.7c0.1,1.3,0.4,2.5,1,3.6c-0.5,0.7-0.9,1.5-1.3,2.3c-1.8,1-3.3,2.6-4.3,4.5c-2.1,2-3.4,4.7-3.4,7.8
		c0,3.6,1.8,6.8,4.5,8.7c0.2,2.7,1.5,5.1,3.3,6.8h5.4v-582h-13c0,0.1-0.1,0.1-0.1,0.1c-2.1,2-3.4,4.7-3.4,7.8c0,2.5,0.9,4.9,2.4,6.7
		c-1,0.9-1.9,2-2.5,3.2c-2.1,2-3.4,4.7-3.4,7.8c0,3.6,1.8,6.8,4.5,8.7c0.1,1,0.3,1.9,0.6,2.8c-0.4,1.1-0.6,2.2-0.6,3.4
		c0,2.4,0.8,4.5,2.1,6.3c-0.8,1.5-1.3,3.3-1.3,5.1c0,3,1.2,5.7,3.2,7.7c-0.7,0.8-1.2,1.7-1.6,2.7c-1.8,1-3.3,2.6-4.3,4.5
		c-2.1,2-3.4,4.7-3.4,7.8c0,3.6,1.8,6.8,4.5,8.7c0.3,2.9,1.7,5.5,3.9,7.3c-1.4,1.8-2.3,4.1-2.3,6.6c0,2.1,0.6,4.1,1.7,5.7
		c-0.3,0.4-0.6,0.9-0.8,1.4c-2.1,2-3.4,4.7-3.4,7.8c0,3.6,1.8,6.8,4.5,8.7c0,0.3,0.1,0.5,0.1,0.8c-0.1,0.3-0.3,0.6-0.4,0.9
		c-1.8,1-3.3,2.6-4.3,4.5c-2.1,2-3.4,4.7-3.4,7.8c0,3.6,1.8,6.8,4.5,8.7c0.3,3.2,2,6,4.5,7.8c-0.5,0.7-0.9,1.4-1.3,2.2
		c-1.8,1-3.3,2.6-4.3,4.5c-2.1,2-3.4,4.7-3.4,7.8c0,3.6,1.8,6.8,4.5,8.7c0.2,2.2,1.1,4.2,2.4,5.8C13.9,158.8,12.7,160.2,11.9,161.8z
		"/>
</g>
<path class="st0" d="M15.3,560c0,0.1-0.1,0.1-0.1,0.1c-2.1,2-3.4,4.7-3.4,7.8c0,2.5,0.9,4.9,2.4,6.7c-1,0.9-1.9,2-2.5,3.2
	c-1.3,1.3-2.4,2.9-2.9,4.7h19.5V560H15.3z"/>
<circle class="st0" cx="22.7" cy="567.9" r="10.9"/>
</svg>
