<?xml version="1.0" encoding="utf-8"?>
<!-- Generator: Adobe Illustrator 21.1.0, SVG Export Plug-In . SVG Version: 6.00 Build 0)  -->
<svg version="1.1" id="Laag_1" xmlns="http://www.w3.org/2000/svg" xmlns:xlink="http://www.w3.org/1999/xlink" x="0px" y="0px"
	 viewBox="0 0 29 582.5" style="enable-background:new 0 0 29 582.5;" xml:space="preserve">
<style type="text/css">
	.st0{fill:none;}
	.st1{fill:#96BB8D;}
</style>
<g>
	<path class="st1" d="M17.1,398.2c2.1-2,3.4-4.7,3.4-7.8c0-3.6-1.8-6.8-4.5-8.7c-0.1-1.4-0.5-2.8-1.1-4c1.9-1.9,3.1-4.6,3.1-7.5
		c0-3.6-1.8-6.8-4.5-8.7c0-0.4-0.1-0.8-0.2-1.2c0.1-0.2,0.2-0.3,0.2-0.5c1.8-1,3.3-2.6,4.3-4.5c2.1-2,3.4-4.7,3.4-7.8
		c0-3.6-1.8-6.8-4.5-8.7c-0.2-2.7-1.5-5.1-3.3-6.9c0.7-1.4,1.1-3,1.1-4.6c0-3.6-1.8-6.8-4.5-8.7c-0.1-1.2-0.4-2.3-0.9-3.4
		c0.5-0.7,0.9-1.4,1.2-2.1c1.8-1,3.3-2.6,4.3-4.5c2.1-2,3.4-4.7,3.4-7.8c0-3.6-1.8-6.8-4.5-8.7c-0.3-3.7-2.5-6.8-5.5-8.5
		c1-0.9,1.8-1.9,2.4-3.1c2.1-2,3.4-4.7,3.4-7.8c0-3.2-1.4-6.1-3.7-8.1c0.5-0.7,1-1.5,1.3-2.3c1.8-1,3.3-2.6,4.3-4.5
		c2.1-2,3.4-4.7,3.4-7.8c0-3.6-1.8-6.8-4.5-8.7c-0.4-4.3-3.4-7.9-7.4-9.2c0-0.1-0.1-0.2-0.1-0.2c0.3-0.4,0.6-0.9,0.8-1.4
		c2.1-2,3.4-4.7,3.4-7.8c0-3.6-1.8-6.8-4.5-8.7c0-0.5-0.1-1-0.2-1.5c1.4-1,2.6-2.3,3.4-3.9c2.1-2,3.4-4.7,3.4-7.8
		c0-3.6-1.8-6.8-4.5-8.7c-0.2-1.9-0.8-3.7-1.9-5.1c1.3-1.8,2.1-4,2.1-6.3c0-3.6-1.8-6.8-4.5-8.7c0,0,0-0.1,0-0.1
		c1.5-1.2,2.8-2.7,3.5-4.5c1.8-1,3.3-2.6,4.3-4.5c2.1-2,3.4-4.7,3.4-7.8c0-3.6-1.8-6.8-4.5-8.7c-0.4-4.3-3.4-7.9-7.4-9.2
		c-0.3-0.6-0.7-1.2-1.1-1.8c1.7-1.9,2.7-4.4,2.7-7.1c0-1.2-0.2-2.4-0.6-3.5c1.2-1,2.2-2.2,2.9-3.6c2.1-2,3.4-4.7,3.4-7.8
		c0-3.6-1.8-6.8-4.5-8.7c-0.1-1.6-0.7-3.1-1.4-4.5c0.4-0.5,0.8-1.1,1.1-1.7c2.1-2,3.4-4.7,3.4-7.8c0-3.6-1.8-6.8-4.5-8.7
		C5,78.7,3,75.7,0.2,73.9c1.3-1.1,2.4-2.5,3-4.2c1.8-1,3.3-2.6,4.3-4.5c2.1-2,3.4-4.7,3.4-7.8c0-3.2-1.4-6-3.6-8
		c1.3-1.8,2.1-4,2.1-6.4c0-3.6-1.8-6.8-4.5-8.7c-0.1-1.3-0.4-2.5-1-3.6c0.5-0.7,0.9-1.5,1.3-2.3c1.8-1,3.3-2.6,4.3-4.5
		c2.1-2,3.4-4.7,3.4-7.8c0-3.6-1.8-6.8-4.5-8.7C8.2,4.9,7,2.5,5.2,0.7h-5.4v581.8h13c0-0.1,0.1-0.1,0.1-0.1c2.1-2,3.4-4.7,3.4-7.8
		c0-2.5-0.9-4.9-2.4-6.7c1-0.9,1.9-2,2.5-3.2c2.1-2,3.4-4.7,3.4-7.8c0-3.6-1.8-6.8-4.5-8.7c-0.1-1-0.3-1.9-0.6-2.8
		c0.4-1.1,0.6-2.2,0.6-3.4c0-2.4-0.8-4.5-2.1-6.3c0.8-1.5,1.3-3.3,1.3-5.1c0-3-1.2-5.7-3.2-7.7c0.7-0.8,1.2-1.7,1.6-2.7
		c1.8-1,3.3-2.6,4.3-4.5c2.1-2,3.4-4.7,3.4-7.8c0-3.6-1.8-6.8-4.5-8.7c-0.3-2.9-1.7-5.5-3.9-7.3c1.4-1.8,2.3-4.1,2.3-6.6
		c0-2.1-0.6-4.1-1.7-5.7c0.3-0.4,0.6-0.9,0.8-1.4c2.1-2,3.4-4.7,3.4-7.8c0-3.6-1.8-6.8-4.5-8.7c0-0.3-0.1-0.5-0.1-0.8
		c0.1-0.3,0.3-0.6,0.4-0.9c1.8-1,3.3-2.6,4.3-4.5c2.1-2,3.4-4.7,3.4-7.8c0-3.6-1.8-6.8-4.5-8.7c-0.3-3.2-2-6-4.5-7.8
		c0.5-0.7,0.9-1.4,1.3-2.2c1.8-1,3.3-2.6,4.3-4.5c2.1-2,3.4-4.7,3.4-7.8c0-3.6-1.8-6.8-4.5-8.7c-0.2-2.2-1.1-4.2-2.4-5.8
		C15.1,401.1,16.3,399.8,17.1,398.2z"/>
</g>
<circle class="st1" cx="5.3" cy="-7.9" r="10.9"/>
</svg>
