<?xml version="1.0" encoding="utf-8"?>
<!-- Generator: Adobe Illustrator 21.1.0, SVG Export Plug-In . SVG Version: 6.00 Build 0)  -->
<svg version="1.1" id="Laag_1" xmlns="http://www.w3.org/2000/svg" xmlns:xlink="http://www.w3.org/1999/xlink" x="0px" y="0px"
	 viewBox="0 0 79.8 80.4" style="enable-background:new 0 0 79.8 80.4;" xml:space="preserve">
<style type="text/css">
	.st0{fill:#F2A682;}
	.st1{fill:#020203;}
	.st2{fill:#FFFFFF;}
	.st3{fill:#576166;}
	.st4{fill:#D38E7B;}
	.st5{fill:#512412;}
	.st6{fill:#F8FAEC;}
	.st7{opacity:0.2;fill:#F8FAEC;enable-background:new    ;}
	.st8{fill:#B55543;}
	.st9{fill:#692810;}
	.st10{fill:#E0B7C5;}
</style>
<g>
	<path class="st0" d="M65.6,58.1L57.7,66c-9.4,9.4-24.9,9.4-34.3,0L9.3,51.9c-9.4-9.4-9.4-24.9,0-34.3l7.9-7.9
		c9.4-9.4,24.9-9.4,34.3,0l14.1,14.1C75,33.2,75.1,48.6,65.6,58.1z"/>
	
		<ellipse transform="matrix(0.7071 -0.7071 0.7071 0.7071 4.391320e-02 60.3454)" class="st0" cx="72.9" cy="30.1" rx="5.9" ry="5.9"/>
	<g>
		<path class="st1" d="M48.4,29c-3.1,3.1-3.1,8.2,0,11.4c0.1,0.1,0.2,0.2,0.3,0.3c-2.6-2.8-2.5-7.3,0.3-10c2.8-2.8,7.4-2.8,10.3,0
			c2.7,2.7,2.8,7.1,0.3,10c0.1-0.1,0.2-0.2,0.3-0.3c3.1-3.1,3.1-8.2,0-11.4C56.6,25.8,51.5,25.8,48.4,29z"/>
		<path class="st1" d="M48.6,40.6c0.1,0.1,0.2,0.2,0.3,0.3c2.8,2.8,7.4,2.8,10.3,0c0.1-0.1,0.2-0.2,0.3-0.3
			C56.4,43.4,51.7,43.4,48.6,40.6z"/>
		<path class="st2" d="M59.2,30.6c-2.8-2.8-7.4-2.8-10.3,0c-2.7,2.7-2.8,7.1-0.3,10c3.1,2.8,7.7,2.8,10.8,0
			C62,37.8,61.9,33.4,59.2,30.6z"/>
	</g>
	<ellipse transform="matrix(0.7071 -0.7071 0.7071 0.7071 -9.1167 47.4742)" class="st3" cx="52.7" cy="34.7" rx="5.6" ry="5.6"/>
	<ellipse transform="matrix(0.7071 -0.7071 0.7071 0.7071 0.379 60.4842)" class="st4" cx="73.2" cy="29.8" rx="2.7" ry="2.7"/>
	<ellipse transform="matrix(0.7071 -0.7071 0.7071 0.7071 -43.5851 42.2736)" class="st0" cx="29.2" cy="73.7" rx="5.9" ry="5.9"/>
	<ellipse transform="matrix(0.7071 -0.7071 0.7071 0.7071 -43.2723 42.4032)" class="st4" cx="29.5" cy="73.4" rx="2.7" ry="2.7"/>
	<path class="st5" d="M49.1,19.3c0,0-0.8-2.7-6.1-1.5c-5.2,1.2-8.1,3.6-7,5.4c1.1,1.9,1.8,3.8,4.1,2C42.5,23.4,46.1,20.4,49.1,19.3z
		"/>
	<path class="st5" d="M18.8,49.7c0,0-2.7-0.8-1.7-6c1-5.3,3.4-8.2,5.2-7.1s3.8,1.7,2.1,4.1C22.7,43,19.9,46.6,18.8,49.7z"/>
	<ellipse transform="matrix(0.7071 -0.7071 0.7071 0.7071 -8.9233 47.4496)" class="st1" cx="52.8" cy="34.5" rx="3.8" ry="3.8"/>
	<g>
		<path class="st1" d="M51.2,29.4c-0.9,0.3-1.7,0.7-2.5,1.4c-2.2,2.2-2.2,5.7,0,7.9c2.2,2.2,5.7,2.2,7.9,0c0.7-0.7,1.2-1.5,1.4-2.4
			C56,35.7,51.4,34,51.2,29.4z"/>
	</g>
	<ellipse class="st6" cx="52.3" cy="30.3" rx="1.8" ry="1.1"/>
	<ellipse transform="matrix(0.7071 -0.7071 0.7071 0.7071 -11.3693 49.1845)" class="st6" cx="53.7" cy="38.3" rx="0.6" ry="0.6"/>
	<ellipse transform="matrix(0.3964 -0.9181 0.9181 0.3964 -16.5735 77.4312)" class="st7" cx="50.6" cy="51.3" rx="0.8" ry="0.6"/>
	<path class="st1" d="M56.4,35.7c0,0,1.1,0.4,1.8,0.1c0,0,0.1-0.2-0.1,0.4C57.9,36.9,56.4,35.7,56.4,35.7z"/>
	<path class="st8" d="M50.7,53.2c-0.4-0.2-0.7-0.4-0.9-0.7c-0.2-0.3-0.5-0.6-0.5-1.1c0-0.2,0-0.4,0.2-0.6c0.1-0.2,0.3-0.3,0.4-0.4
		c0.3-0.2,0.7-0.3,1.1-0.4c-0.3,0.2-0.7,0.4-0.9,0.6s-0.5,0.5-0.4,0.8c0,0.3,0.2,0.6,0.4,0.9C50.2,52.7,50.4,53,50.7,53.2z"/>
	<path class="st0" d="M51.8,59c0.6-0.5,1.2-1,1.8-1.6c0.3-0.3,0.6-0.6,0.8-0.9c0.2-0.3,0.5-0.6,0.7-0.9c0.2-0.3,0.4-0.7,0.6-1
		c0.2-0.3,0.3-0.7,0.5-1c0.2-0.3,0.3-0.7,0.4-1c0.1-0.4,0.2-0.8,0.2-1.1h0.1c0.2,0.4,0.3,0.8,0.3,1.3c0,0.4,0,0.8-0.2,1.3
		c-0.1,0.4-0.3,0.8-0.5,1.2c-0.2,0.4-0.5,0.7-0.8,1c-0.5,0.6-1.1,1.2-1.8,1.7c-0.3,0.2-0.6,0.5-1,0.7c-0.4,0.2-0.7,0.4-1,0.6
		L51.8,59z"/>
	<g>
		<path class="st9" d="M12.1,49.7C11.7,42,9.3,35.2,9.3,35.2c4.3,1.3,9.1-1.4,9.1-1.4l-6.9-2.4c4.4,1,7.3,0.3,13.8-2.9
			c6.5-3.2-4-2.2-4-2.2c9.1-2.5,16.2-9.4,16.2-9.4c-0.8,0.8-6,0.4-6,0.4c1.6,0.1,10.2-4.5,14.8-4.6c4.6-0.1,22,17.8,22,17.8
			c-0.5-0.9-0.6-3.2-0.5-4.4c-0.6-0.8-1.3-1.7-2.1-2.4L51.5,9.6c-9.4-9.4-24.9-9.4-34.3,0l-7.9,7.9c-9.4,9.4-9.4,24.9,0,34.3
			L23.4,66c0.5,0.5,1,1,1.6,1.5c1.1,0,2.9,0.2,3.7,0.3C29.7,67.8,12.1,49.7,12.1,49.7z"/>
	</g>
	<g>
		<path class="st1" d="M28.5,48.7c3.1-3.1,8.2-3.1,11.4,0c0.1,0.1,0.2,0.2,0.3,0.3c-2.8-2.6-7.3-2.5-10,0.3c-2.8,2.8-2.8,7.4,0,10.3
			c2.7,2.7,7.1,2.8,10,0.3c-0.1,0.1-0.2,0.2-0.3,0.3c-3.2,3.1-8.3,3.1-11.4,0C25.3,56.9,25.3,51.8,28.5,48.7z"/>
		<path class="st1" d="M40.1,49c0.1,0.1,0.2,0.2,0.3,0.3c2.8,2.8,2.8,7.4,0,10.3c-0.1,0.1-0.2,0.2-0.3,0.3
			C42.9,56.7,42.9,52,40.1,49z"/>
		<path class="st2" d="M30.1,59.5c-2.8-2.8-2.8-7.4,0-10.3c2.7-2.7,7.1-2.8,10-0.3c2.8,3.1,2.8,7.7,0,10.8
			C37.3,62.3,32.9,62.2,30.1,59.5z"/>
	</g>
	<ellipse transform="matrix(0.7071 -0.7071 0.7071 0.7071 -27.3401 39.7295)" class="st3" cx="34.3" cy="52.9" rx="5.6" ry="5.6"/>
	<ellipse transform="matrix(0.7071 -0.7071 0.7071 0.7071 -27.4502 39.553)" class="st1" cx="34" cy="52.9" rx="3.8" ry="3.8"/>
	<g>
		<path class="st1" d="M28.9,51.4c0.3-0.9,0.7-1.7,1.4-2.5c2.2-2.2,5.7-2.2,7.9,0c2.2,2.2,2.2,5.7,0,7.9c-0.7,0.7-1.5,1.2-2.4,1.4
			C35.3,56.1,33.5,51.5,28.9,51.4z"/>
	</g>
	<ellipse class="st6" cx="29.9" cy="52.4" rx="1.1" ry="1.8"/>
	<ellipse transform="matrix(0.7071 -0.7071 0.7071 0.7071 -26.9474 42.5094)" class="st6" cx="37.8" cy="53.8" rx="0.6" ry="0.6"/>
	<path class="st1" d="M35.3,56.5c0,0,0.4,1.1,0.1,1.8c0,0-0.2,0.1,0.4-0.1C36.4,58,35.3,56.5,35.3,56.5z"/>
	<path class="st9" d="M7.8,19.5c0,0-1.7-7.4,0-5.7s1.3,6,1.3,6"/>
	<path class="st9" d="M9.5,19c0,0-7.4-1.7-5.7,0s6,1.3,6,1.3"/>
</g>
<g>
	<ellipse transform="matrix(0.7071 -0.7071 0.7071 0.7071 -23.8138 55.901)" class="st10" cx="55.6" cy="56.7" rx="2.6" ry="3"/>
	<path class="st8" d="M57.7,58.8c-1.1,1.1-3,0.9-4.1-0.2c-0.6-0.5-1-1.2-1.1-2c-0.1-0.8,0.1-1.6,0.7-2.2c0.6-0.6,1.4-0.8,2.2-0.7
		c0.8,0.1,1.5,0.5,2,1.1C58.6,55.8,58.8,57.7,57.7,58.8z M57.7,58.8c0.5-0.5,0.7-1.3,0.7-2c-0.1-0.7-0.5-1.4-1-1.9
		c-1-1-2.8-1.2-3.7-0.2c-1,0.9-0.8,2.7,0.2,3.7c0.5,0.5,1.1,0.9,1.9,1C56.4,59.6,57.2,59.3,57.7,58.8z"/>
</g>
</svg>
