<?xml version="1.0" encoding="utf-8"?>
<!-- Generator: Adobe Illustrator 21.1.0, SVG Export Plug-In . SVG Version: 6.00 Build 0)  -->
<svg version="1.1" id="Laag_1" xmlns="http://www.w3.org/2000/svg" xmlns:xlink="http://www.w3.org/1999/xlink" x="0px" y="0px"
	 viewBox="0 0 234.1 235.8" style="enable-background:new 0 0 234.1 235.8;" xml:space="preserve">
<style type="text/css">
	.st0{fill:#F1A581;}
	.st1{fill:#FFFFFF;}
	.st2{fill:#566065;}
	.st3{fill:#D28D7A;}
	.st4{fill:#51220E;}
	.st5{fill:#F8FAEB;}
	.st6{opacity:0.2;fill:#F8FAEB;}
	.st7{fill:#B45442;}
	.st8{fill:#69270D;}
</style>
<path class="st0" d="M135.6,232.3h-35.4c-42.2,0-76.8-34.5-76.8-76.8V92.3c0-42.2,34.5-76.8,76.8-76.8h35.4
	c42.2,0,76.8,34.5,76.8,76.8v63.2C212.4,197.7,177.9,232.3,135.6,232.3z"/>
<circle class="st0" cx="214.4" cy="186" r="18.6"/>
<g>
	<path d="M162.1,128.6c-14.1,0-25.5,11.4-25.5,25.5c0,0.4,0,0.8,0,1.3c0.6-12.1,10.7-21.8,23-21.8c12.7,0,23,10.3,23,23
		c0,12.3-9.6,22.3-21.8,23c0.4,0,0.8,0,1.3,0c14.1,0,25.5-11.4,25.5-25.5C187.6,140,176.2,128.6,162.1,128.6z"/>
	<path d="M136.7,155.3c0,0.4,0,0.8,0,1.2c0,12.7,10.3,23,23,23c0.4,0,0.8,0,1.2,0C147.8,178.8,137.3,168.4,136.7,155.3z"/>
	<path class="st1" d="M182.6,156.5c0-12.7-10.3-23-23-23c-12.3,0-22.3,9.6-23,21.8c0.6,13.1,11.1,23.5,24.2,24.2
		C173,178.8,182.6,168.8,182.6,156.5z"/>
</g>
<circle class="st2" cx="156.2" cy="159.9" r="17.7"/>
<circle class="st3" cx="215.9" cy="186" r="8.4"/>
<circle class="st0" cx="19.1" cy="186" r="18.6"/>
<circle class="st3" cx="20.5" cy="186" r="8.4"/>
<path class="st4" d="M180.3,99.5c0,0,2.2-8.7-13.9-14.2c-16.1-5.5-27.8-3.7-27.8,3.2s-1.3,13.2,7.9,12.2
	C155.6,99.6,170.1,97.5,180.3,99.5z"/>
<path class="st4" d="M56.3,99.5c0,0-2.2-8.7,13.9-14.2C86.3,79.7,98,81.6,98,88.4s1.3,13.2-7.9,12.2C80.9,99.6,66.5,97.5,56.3,99.5z
	"/>
<circle cx="156.9" cy="159.5" r="12.1"/>
<g>
	<path d="M164.8,144.5c-2.6-1.4-5.5-2.3-8.7-2.3c-9.8,0-17.7,7.9-17.7,17.7c0,9.8,7.9,17.7,17.7,17.7c3.1,0,6.1-0.8,8.6-2.2
		C161.3,169.4,154.9,155.3,164.8,144.5z"/>
</g>
<ellipse transform="matrix(0.7071 -0.7071 0.7071 0.7071 -57.0156 160.3004)" class="st5" cx="165" cy="149" rx="3.5" ry="5.8"/>
<circle class="st5" cx="150.3" cy="170" r="1.9"/>
<ellipse transform="matrix(0.9295 -0.3689 0.3689 0.9295 -59.4596 56.1563)" class="st6" cx="117.1" cy="183.6" rx="2.5" ry="1.9"/>
<path d="M162.1,170.4c0,0,1.6,3.5,3.9,4.2c0,0,0.6-0.2-1.2,0.8C162.9,176.3,162.1,170.4,162.1,170.4z"/>
<path class="st7" d="M113.1,188.1c-0.4-1.2-0.6-2.4-0.5-3.6c0.1-1.2,0.3-2.6,1.3-3.6c0.5-0.5,1.1-0.9,1.8-1c0.7-0.1,1.3-0.1,2,0
	c1.2,0.3,2.3,0.9,3.3,1.6c-1.2-0.3-2.3-0.7-3.4-0.8c-1.1-0.1-2.2,0.1-2.8,0.9c-0.7,0.7-1,1.8-1.2,3
	C113.2,185.7,113.1,186.9,113.1,188.1z"/>
<path class="st7" d="M102.5,203.5c2.5,0.4,5,0.5,7.5,0.5c1.2,0,2.5,0,3.7-0.2c1.2-0.1,2.5-0.2,3.7-0.5c1.2-0.2,2.4-0.6,3.5-1
	c1.1-0.4,2.2-0.8,3.3-1.2c1.1-0.4,2.2-0.9,3.2-1.5c1-0.6,2.1-1.3,3.1-2l0.2,0.2c-0.5,1.2-1.2,2.4-2.2,3.4c-0.9,1-2,1.8-3.2,2.5
	c-1.2,0.7-2.5,1.1-3.8,1.4c-1.3,0.3-2.6,0.4-3.9,0.5c-2.6,0.2-5.2,0.1-7.8-0.2c-1.3-0.2-2.5-0.4-3.8-0.6c-1.3-0.3-2.5-0.6-3.7-1
	L102.5,203.5z"/>
<g>
	<path class="st8" d="M34.5,93.9c16.3-18.3,26.3-38.9,26.3-38.9c6.6,12.5,23.5,17.3,23.5,17.3l-10-20.8c7.6,12.1,15.6,17,37.4,24.2
		c21.8,7.3-4.2-13.9-4.2-13.9c26,14.9,57.5,15.2,57.5,15.2c-3.8,0-14.5-12.5-14.5-12.5c3.5,3.8,32.9,12.8,43.3,22.9
		c10.4,10,9.3,89,9.3,89c0.8-3.2,5.9-8.5,8.7-11.1c0.4-3.3,0.7-6.7,0.7-10.1V92.3c0-42.2-34.5-76.8-76.8-76.8h-35.4
		c-42.2,0-76.8,34.5-76.8,76.8v63.2c0,2.3,0.1,4.6,0.3,6.8c2.3,2.5,6.2,6.9,7.6,8.8C33.4,173.8,34.5,93.9,34.5,93.9z"/>
</g>
<g>
	<path d="M73.5,128.1c14.1,0,25.5,11.4,25.5,25.5c0,0.4,0,0.8,0,1.3c-0.6-12.1-10.7-21.8-23-21.8c-12.7,0-23,10.3-23,23
		c0,12.3,9.6,22.3,21.8,23c-0.4,0-0.8,0-1.3,0C59.4,179,48,167.6,48,153.6C48,139.5,59.4,128.1,73.5,128.1z"/>
	<path d="M98.9,154.8c0,0.4,0,0.8,0,1.2c0,12.7-10.3,23-23,23c-0.4,0-0.8,0-1.2,0C87.8,178.4,98.3,167.9,98.9,154.8z"/>
	<path class="st1" d="M53,156c0-12.7,10.3-23,23-23c12.3,0,22.3,9.6,23,21.8c-0.6,13.1-11.1,23.5-24.2,24.2
		C62.6,178.4,53,168.3,53,156z"/>
</g>
<circle class="st2" cx="79.4" cy="159.5" r="17.7"/>
<circle cx="78.7" cy="159" r="12.1"/>
<g>
	<path d="M70.7,144.1c2.6-1.4,5.5-2.3,8.7-2.3c9.8,0,17.7,7.9,17.7,17.7c0,9.8-7.9,17.7-17.7,17.7c-3.1,0-6.1-0.8-8.6-2.2
		C74.3,169,80.7,154.8,70.7,144.1z"/>
</g>
<ellipse transform="matrix(0.7071 -0.7071 0.7071 0.7071 -84.3349 93.4154)" class="st5" cx="70.6" cy="148.5" rx="5.8" ry="3.5"/>
<circle class="st5" cx="85.3" cy="169.5" r="1.9"/>
<path d="M73.5,170c0,0-1.6,3.5-3.9,4.2c0,0-0.6-0.2,1.2,0.8C72.7,175.9,73.5,170,73.5,170z"/>
<path class="st8" d="M92.5,16.5c0,0,12.8-20.3,12.8-12.9S94.9,19.9,94.9,19.9"/>
<path class="st8" d="M97.5,19.3c0,0-12.8-20.3-12.8-12.9s10.5,16.3,10.5,16.3"/>
<ellipse class="st0" cx="74.2" cy="152.1" rx="27.2" ry="25.5"/>
<ellipse class="st0" cx="161.9" cy="153.1" rx="27.2" ry="25.5"/>
</svg>
